<?xml version="1.0" standalone="no"?><!DOCTYPE svg PUBLIC "-//W3C//DTD SVG 1.1//EN" "http://www.w3.org/Graphics/SVG/1.1/DTD/svg11.dtd"><svg t="1715782255279" class="icon" viewBox="0 0 1024 1024" version="1.1" xmlns="http://www.w3.org/2000/svg" p-id="9412" xmlns:xlink="http://www.w3.org/1999/xlink" width="100" height="100"><path d="M508.957311 78.934998c16.305785 0 32.539469 0.046866 48.311702 2.44064 10.811641 1.633102 47.889908-18.357077 76.063622-41.39355 21.918898-17.924467 36.703339-40.459834 41.065488-39.947912 15.732577 1.849407-3.024664 105.545982 35.203624 123.502895 160.635238 75.443548 271.895275 238.732127 271.895275 427.930428 0 260.928616-211.607491 472.532501-472.539711 472.532501-260.92501 0-472.532501-211.603885-472.532501-472.532501C36.42481 290.538883 248.028695 78.934998 508.957311 78.934998L508.957311 78.934998 508.957311 78.934998zM657.342481 45.750219c-33.581338 36.656472-63.027646 55.940055-107.125008 69.015687-65.161855 19.323239-211.719248 22.214514-204.253124 117.082244 4.149449 52.756768 198.344394 287.945099 258.390638 366.600775-87.008651-2.519952-169.734465 1.074314-236.241015 61.430595-77.336216 70.187339-101.504685 200.922028-1.734044 270.864221 143.727404 100.747618 390.805295-55.637228 350.987166-218.860915-10.224012-41.905472-39.349469-71.968249-61.340468-107.608089-52.046567-84.218318-104.096739-168.451055-156.146911-252.669373-15.231471-27.914149-18.746426-40.9321-21.197881-72.67845C613.731805 245.154508 700.812558 208.94146 657.342481 45.750219L657.342481 45.750219z" fill="#1296db" p-id="9413"></path></svg>