<?xml version="1.0" standalone="no"?><!DOCTYPE svg PUBLIC "-//W3C//DTD SVG 1.1//EN" "http://www.w3.org/Graphics/SVG/1.1/DTD/svg11.dtd"><svg t="1715907283182" class="icon" viewBox="0 0 1024 1024" version="1.1" xmlns="http://www.w3.org/2000/svg" p-id="11127" xmlns:xlink="http://www.w3.org/1999/xlink" width="100" height="100"><path d="M696.192 260.864H169.728a46.464 46.464 0 0 0-46.464 46.464v411.904a46.464 46.464 0 0 0 46.464 46.464h526.464a46.464 46.464 0 0 0 46.464-46.464V307.328c0-25.6-20.736-46.464-46.464-46.464z m-153.6 276.608l-131.456 105.728c-20.352 16.384-50.432 1.92-50.432-24.192V407.552c0-25.984 30.208-40.448 50.432-24.192l131.456 105.728c15.36 12.544 15.36 35.968 0 48.384zM872.192 337.408l-94.464 72.32v205.056l94.464 74.624c27.136 22.656 68.48 3.456 68.48-32v-288c0-35.456-41.344-54.784-68.48-32z" fill="#ffffff" p-id="11128"></path></svg>