<?xml version="1.0" standalone="no"?><!DOCTYPE svg PUBLIC "-//W3C//DTD SVG 1.1//EN" "http://www.w3.org/Graphics/SVG/1.1/DTD/svg11.dtd"><svg t="1716296654114" class="icon" viewBox="0 0 1024 1024" version="1.1" xmlns="http://www.w3.org/2000/svg" p-id="4449" xmlns:xlink="http://www.w3.org/1999/xlink" width="100" height="100"><path d="M778.7 269.7H392.1v158.5h79c3.1 0 5.6 2.5 5.6 5.6v389.5h302V269.7z" fill="#D1D2D4" p-id="4450"></path><path d="M813.6 168.2H353.8c-41.1 0-74.6 33.4-74.6 74.6V391H232c-30.5 0-55.3 24.8-55.3 55.3v468.1c0 30.5 24.8 55.3 55.3 55.3H813.6c41.1 0 74.6-33.4 74.6-74.6V242.8c0-41.1-33.5-74.6-74.6-74.6zM353.8 920H232.1c-3.1 0-5.6-2.5-5.6-5.6V446.3c0-3.1 2.5-5.6 5.6-5.6h237.3c3.1 0 5.6 2.5 5.6 5.6v468.1c0 3.1-2.5 5.6-5.6 5.6H353.8z m484.7-24.8c0 13.7-11.1 24.9-24.9 24.9H524.1c0.2-1.9 0.6-3.7 0.6-5.6V446.3c0-30.5-24.8-55.3-55.3-55.3H329V242.8c0-13.7 11.1-24.9 24.9-24.9h459.8c13.7 0 24.9 11.1 24.9 24.9v652.4z" fill="#0E0C0D" p-id="4451"></path><path d="M271.5 502.7h156.4v294.1H271.5z" fill="#D2D4D5" p-id="4452"></path><path d="M349.7 851.9m-19.9 0a19.9 19.9 0 1 0 39.8 0 19.9 19.9 0 1 0-39.8 0Z" fill="#0E0C0D" p-id="4453"></path></svg>