<?xml version="1.0" standalone="no"?><!DOCTYPE svg PUBLIC "-//W3C//DTD SVG 1.1//EN" "http://www.w3.org/Graphics/SVG/1.1/DTD/svg11.dtd"><svg t="1726296513919" class="icon" viewBox="0 0 1024 1024" version="1.1" xmlns="http://www.w3.org/2000/svg" p-id="5217" xmlns:xlink="http://www.w3.org/1999/xlink" width="100" height="100"><path d="M528.2 500.4v-92.1c0-9.4-7.7-17.2-17.2-17.2-9.4 0-17.2 7.7-17.2 17.2v98.9c0 2.9 0.8 5.8 2.1 8.2 0.8 1.6 1.9 3.1 3.2 4.5l69.9 69.9c6.7 6.7 17.6 6.7 24.3 0 6.6-6.6 6.6-17.6-0.1-24.3l-65-65.1z" fill="#3783F2" p-id="5218"></path><path d="M512 64.2C264.7 64.2 64.2 264.7 64.2 512S264.7 959.8 512 959.8 959.8 759.3 959.8 512 759.3 64.2 512 64.2zM291.4 345.8l47.6-47.6c6.7-6.7 17.6-6.7 24.3 0 6.7 6.7 6.7 17.6 0 24.3l-47.6 47.6c-6.6 6.7-17.6 6.7-24.3 0s-6.7-17.6 0-24.3z m424.3 380c-6.7 6.7-17.6 6.7-24.3 0l-46.5-46.5c-36.2 30-82.7 48.1-133.5 48.1s-97.2-18-133.5-48.1l-46.5 46.5c-6.7 6.7-17.6 6.7-24.3 0-6.7-6.7-6.7-17.6 0-24.3l46.2-46.2c-31.9-36.7-51.2-84.7-51.2-137.1 0-115.5 93.7-209.2 209.2-209.2s209.2 93.6 209.2 209.2c0 52.5-19.3 100.4-51.2 137.1l46.2 46.2c6.9 6.7 6.9 17.6 0.2 24.3z m17-355.7c-6.7 6.7-17.6 6.7-24.3 0l-47.6-47.6c-6.7-6.7-6.7-17.6 0-24.3s17.6-6.7 24.3 0l47.6 47.6c6.6 6.7 6.6 17.6 0 24.3z" fill="#3783F2" p-id="5219"></path></svg>