<?xml version="1.0" standalone="no"?><!DOCTYPE svg PUBLIC "-//W3C//DTD SVG 1.1//EN" "http://www.w3.org/Graphics/SVG/1.1/DTD/svg11.dtd"><svg t="1715773032700" class="icon" viewBox="0 0 1024 1024" version="1.1" xmlns="http://www.w3.org/2000/svg" p-id="3603" xmlns:xlink="http://www.w3.org/1999/xlink" width="100" height="100"><path d="M950 418c24.3 0 44 19.7 44 44v506c0 24.3-19.7 44-44 44H803c-24.3 0-44-19.7-44-44V462c0-24.3 19.7-44 44-44h147zM221 292c24.3 0 44 19.7 44 44v632c0 24.3-19.7 44-44 44H74c-24.3 0-44-19.7-44-44V336c0-24.3 19.7-44 44-44h147zM586 12c24.3 0 44 19.7 44 44v912c0 24.3-19.7 44-44 44H439c-24.3 0-44-19.7-44-44V56c0-24.3 19.7-44 44-44h147z" fill="#ffffff" p-id="3604"></path></svg>