<?xml version="1.0" standalone="no"?><!DOCTYPE svg PUBLIC "-//W3C//DTD SVG 1.1//EN" "http://www.w3.org/Graphics/SVG/1.1/DTD/svg11.dtd"><svg t="1715782387340" class="icon" viewBox="0 0 1024 1024" version="1.1" xmlns="http://www.w3.org/2000/svg" p-id="14114" xmlns:xlink="http://www.w3.org/1999/xlink" width="100" height="100"><path d="M872.77 467.92l-171 39.58-5.54 0.79c-0.79 96.56-80.73 174.92-178.09 174.92-98.15 0-178.09-79.94-178.09-178.09 0-98.93 79.94-178.87 178.09-178.87h11.87v-1.59l37.2-174.13a387.42 387.42 0 0 0-52.21-3.95c-198.67 0-360.14 161.46-360.14 360.13S316.35 866.84 515 866.84s360.15-161.47 360.15-360.13a340 340 0 0 0-2.38-38.79z m0 0" fill="#2FA182" p-id="14115"></path><path d="M602.87 159.24l-37.2 174.13c64.9 17.41 114.77 71.23 127.43 138.51l173.34-40.37c-28.49-133-131.39-239-263.57-272.27z m0 0" fill="#4EDDB1" p-id="14116"></path><path d="M955.09 448.93l-34 7.91h-1.58a402.08 402.08 0 0 1 4 54.61C923.43 738.61 739 923 511.85 923S100.27 737.83 100.27 511.45 285.48 99.88 511.85 99.88a367.85 367.85 0 0 1 65.69 5.54l7.92-34.83a445.58 445.58 0 0 0-72.82-6.33C264.9 63.47 63.86 264.51 63.86 511.45s201 448 448 448 447.2-201 447.2-448a329.3 329.3 0 0 0-4-62.52z m0 0" fill="#2FA182" p-id="14117"></path><path d="M620.28 76.93l-7.91 35.61c149.59 38 266.73 157.51 300 307.89l35.63-7.91C911.56 247.89 783.33 118.08 620.28 76.93z m0 0" fill="#4EDDB1" p-id="14118"></path></svg>