<?xml version="1.0" standalone="no"?><!DOCTYPE svg PUBLIC "-//W3C//DTD SVG 1.1//EN" "http://www.w3.org/Graphics/SVG/1.1/DTD/svg11.dtd"><svg t="1715770745180" class="icon" viewBox="0 0 1024 1024" version="1.1" xmlns="http://www.w3.org/2000/svg" p-id="5333" xmlns:xlink="http://www.w3.org/1999/xlink" width="100" height="100"><path d="M824.32 781.312H197.12A94.8224 94.8224 0 0 1 102.4 686.592V367.616a94.8224 94.8224 0 0 1 94.72-94.72H824.32a94.8224 94.8224 0 0 1 94.72 94.72v318.976a94.8224 94.8224 0 0 1-94.72 94.72zM197.12 318.976a48.6912 48.6912 0 0 0-48.64 48.64v318.976a48.6912 48.6912 0 0 0 48.64 48.64H824.32a48.6912 48.6912 0 0 0 48.64-48.64V367.616a48.6912 48.6912 0 0 0-48.64-48.64z" fill="#4D4D4D" p-id="5334"></path><path d="M510.72 579.0208a22.784 22.784 0 0 1-12.9024-3.9424L148.48 339.0976a23.04 23.04 0 1 1 25.6-38.1952l336.896 227.4816 344.3712-222.6176a23.04 23.04 0 0 1 24.9856 38.7072l-357.12 230.8608a22.9376 22.9376 0 0 1-12.4928 3.6864z" fill="#4D4D4D" p-id="5335"></path></svg>