<?xml version="1.0" standalone="no"?><!DOCTYPE svg PUBLIC "-//W3C//DTD SVG 1.1//EN" "http://www.w3.org/Graphics/SVG/1.1/DTD/svg11.dtd"><svg t="1715907298749" class="icon" viewBox="0 0 1024 1024" version="1.1" xmlns="http://www.w3.org/2000/svg" p-id="12191" xmlns:xlink="http://www.w3.org/1999/xlink" width="100" height="100"><path d="M675.316093 790.456558L512.988279 952.784372 350.660465 790.373209c-11.14493-11.133023-30.48186-11.14493-41.650605 0.011907a29.148279 29.148279 0 0 0-8.656372 20.706233c0 7.370419 3.024372 14.693209 8.870698 21.015814l183.057861 183.069767c5.501023 5.477209 13.085767 8.608744 20.813395 8.608744 7.739535 0 15.324279-3.143442 20.825302-8.632558l183.02214-183.034046c5.596279-5.560558 8.668279-12.966698 8.668279-20.861023 0-7.79907-3.167256-15.395721-8.632558-20.801489-11.156837-11.180651-30.553302-11.168744-41.662512 0zM533.980279 8.501581c-10.954419-11.061581-30.850977-11.037767-41.698232-0.047628L308.843163 191.88093c-5.477209 5.953488-8.489674 13.276279-8.489675 20.610977 0 7.763349 3.072 15.12186 8.656372 20.706233 5.584372 5.572465 12.978605 8.644465 20.825303 8.644465 7.858605 0 15.252837-3.072 20.825302-8.644465L512.988279 70.822698l162.304 162.292093c11.14493 11.204465 30.577116 11.14493 41.638698 0.059535 5.596279-5.560558 8.692093-12.954791 8.692093-20.861024 0-7.894326-3.083907-15.300465-8.644465-20.837209L533.980279 8.501581zM241.997395 345.338047a29.291163 29.291163 0 0 0-8.608744-20.789582 29.136372 29.136372 0 0 0-20.87293-8.704c-7.787163 0-15.395721 3.179163-20.825302 8.668279L8.692093 507.522977A29.553116 29.553116 0 0 0 0 528.384c0 7.763349 3.155349 15.36 8.656372 20.849116L192.059535 732.588651c5.941581 5.501023 13.276279 8.537302 20.622884 8.537302a29.505488 29.505488 0 0 0 20.706232-50.33079L71.025116 528.50307l162.315907-162.327814a29.231628 29.231628 0 0 0 8.656372-20.837209zM1015.343628 507.570605l-182.998326-183.010233a29.565023 29.565023 0 0 0-20.87293-8.704c-7.894326 0-15.312372 3.095814-20.813395 8.656372a29.279256 29.279256 0 0 0-8.656372 20.837209c0 7.858605 3.083907 15.252837 8.656372 20.825303l162.315907 162.327814-162.387349 162.315907a29.505488 29.505488 0 0 0 20.741953 50.306976c7.346605 0 14.669395-3.036279 20.980093-8.882604l183.034047-182.998326c5.501023-5.501023 8.656372-13.097674 8.656372-20.861023 0-7.787163-3.167256-15.383814-8.656372-20.813395zM512 701.178047c104.424186 0 189.368558-84.956279 189.368558-189.392373 0-104.412279-84.956279-189.368558-189.368558-189.368558-104.424186 0-189.380465 84.956279-189.380465 189.368558 0 104.424186 84.956279 189.392372 189.380465 189.392373z" p-id="12192" fill="#ffffff"></path></svg>